<mxfile host="app.diagrams.net" modified="2023-04-13T06:09:30.057Z" agent="Mozilla/5.0 (Windows NT 10.0; Win64; x64) AppleWebKit/537.36 (KHTML, like Gecko) Chrome/111.0.0.0 Safari/537.36" version="21.1.7" etag="ZehaSA6f3hqr_hT5sKaY" type="github">
  <diagram name="Page-1" id="wY8YDzLvJTrgZEUhbYze">
    <mxGraphModel>
      <root>
        <mxCell id="0" />
        <mxCell id="1" parent="0" />
      </root>
    </mxGraphModel>
  </diagram>
</mxfile>
